<svg viewBox="0 0 200 200" xmlns="http://www.w3.org/2000/svg">
  <defs>
    <clipPath id="leftHalf"><rect x="0" y="0" width="100" height="200"/></clipPath>
    <clipPath id="rightHalf"><rect x="100" y="0" width="100" height="200"/></clipPath>
    <mask id="commaCut">
      <rect x="0" y="0" width="200" height="200" fill="white"/>
      <g fill="black">
        <circle cx="108" cy="87" r="16"/>
        <path d="M 100,98 C 98,113 88,123 74,135 C 94,135 110,121 114,103 C 115,99 113,96 109,95 Z"/>
      </g>
    </mask>
  </defs>
  <rect x="4" y="4" width="192" height="192" rx="42" fill="#17171A"/>
  <g mask="url(#commaCut)">
    <g clip-path="url(#leftHalf)" fill="#E94866">
      <polygon points="100,55 111.76,88.82 147.55,89.55 119.02,111.18 129.4,145.45 100,125 70.6,145.45 80.98,111.18 52.45,89.55 88.24,88.82"/>
    </g>
    <g clip-path="url(#rightHalf)" fill="#82B2F7">
      <polygon points="100,55 111.76,88.82 147.55,89.55 119.02,111.18 129.4,145.45 100,125 70.6,145.45 80.98,111.18 52.45,89.55 88.24,88.82"/>
    </g>
  </g>
</svg>
